<svg width="100" height="100" viewBox="0 0 100 100" fill="none" xmlns="http://www.w3.org/2000/svg">
<g clip-path="url(#clip0_47_174)">
<rect width="100" height="100" rx="24" fill="white"/>
<rect x="-119" y="-17" width="258" height="134.979" rx="2.89888" fill="#8B4DE1"/>
<path d="M70.6231 54.7116C76.9499 43.1375 72.9551 28.6495 61.4791 21.7897C61.1793 21.6201 60.8001 21.705 60.6271 21.9986L56.1108 29.6226C55.8868 30.0026 55.414 30.1267 55.0159 29.9245C43.2087 23.7063 28.4096 27.6326 21.41 38.8722C21.237 39.1658 21.3238 39.5373 21.6235 39.7069L29.3903 44.1231C29.7782 44.3426 29.905 44.8058 29.6987 45.1957C23.3719 56.7699 27.3843 71.2678 38.8427 78.1177C39.1425 78.2873 39.5217 78.2024 39.6947 77.9088L44.211 70.2847C44.435 69.9048 44.9078 69.7807 45.3059 69.9829C57.1233 76.1838 71.9223 72.2575 78.9118 61.0352C79.0848 60.7416 78.998 60.3701 78.6983 60.2005L70.9315 55.7842C70.5436 55.5648 70.4168 55.1016 70.6231 54.7116ZM43.8728 69.1032C37.5013 64.9925 35.305 56.7494 38.8851 50.1157C39.0303 49.8294 38.9333 49.4751 38.6512 49.3155L30.9021 44.9092C30.4965 44.6798 30.3725 44.1721 30.6242 43.7848C34.8187 37.5447 43.2331 35.3957 50.0062 38.9045C50.2985 39.0468 50.6601 38.952 50.8229 38.6756L55.3291 31.0688C55.5632 30.6716 56.0814 30.5502 56.4768 30.7969C62.8483 34.9076 65.0446 43.1507 61.4645 49.7844C61.3193 50.0707 61.4163 50.4249 61.6984 50.5845L69.4475 54.9908C69.8531 55.2203 69.9771 55.728 69.7254 56.1153C65.4291 62.5281 56.6994 64.6139 49.8395 60.7336L45.0382 68.8412C44.7864 69.2285 44.2682 69.3499 43.8728 69.1032Z" fill="white"/>
</g>
<defs>
<clipPath id="clip0_47_174">
<rect width="100" height="100" rx="24" fill="white"/>
</clipPath>
</defs>
</svg>
