<svg width="135" height="21" viewBox="0 0 135 21" fill="none" xmlns="http://www.w3.org/2000/svg">
<path d="M17.3703 12.1299C19.5994 8.05196 18.192 2.94743 14.1486 0.530487C14.043 0.47074 13.9094 0.500646 13.8484 0.604096L12.2572 3.29028C12.1783 3.42416 12.0117 3.46786 11.8714 3.39662C7.71142 1.20578 2.49727 2.58912 0.0310895 6.54918C-0.0298726 6.65263 0.000695774 6.78351 0.106321 6.84326L2.84276 8.39924C2.97946 8.47656 3.02412 8.63976 2.95144 8.77715C0.722322 12.8551 2.13601 17.9631 6.17315 20.3765C6.27877 20.4363 6.41237 20.4064 6.47334 20.3029L8.06457 17.6167C8.14346 17.4829 8.31005 17.4392 8.45032 17.5104C12.6139 19.6952 17.8281 18.3118 20.2907 14.3579C20.3516 14.2544 20.3211 14.1235 20.2154 14.0638L17.479 12.5078C17.3423 12.4305 17.2976 12.2673 17.3703 12.1299ZM7.94538 17.2004C5.70053 15.7521 4.92671 12.8479 6.18807 10.5106C6.23923 10.4097 6.20507 10.2849 6.10566 10.2287L3.37543 8.6762C3.23253 8.59537 3.18883 8.41649 3.27752 8.28004C4.75538 6.08146 7.72 5.32429 10.1064 6.56055C10.2094 6.6107 10.3368 6.57728 10.3941 6.47991L11.9818 3.79982C12.0643 3.65985 12.2469 3.6171 12.3862 3.70401C14.631 5.15232 15.4048 8.0566 14.1435 10.3939C14.0923 10.4948 14.1265 10.6195 14.2259 10.6758L16.9561 12.2283C17.099 12.3091 17.1427 12.488 17.054 12.6244C15.5403 14.8838 12.4646 15.6187 10.0476 14.2516L8.35599 17.1082C8.2673 17.2446 8.0847 17.2874 7.94538 17.2004Z" fill="white"/>
<path d="M35.7561 16.5881H30.149V3.1757H35.5512C38.271 3.1757 40.2456 4.27477 40.2456 6.65919C40.2456 7.92591 39.6122 9.09949 38.1406 9.58383C39.7426 9.97502 40.8044 11.13 40.8044 12.7134C40.8044 15.5449 38.7925 16.5881 35.7561 16.5881ZM32.7011 5.28069V8.68967H35.2532C36.6689 8.68967 37.6376 8.13082 37.6376 6.88273C37.6376 5.57875 36.5199 5.28069 35.0296 5.28069H32.7011ZM32.7011 10.7947V14.4831H35.6257C37.1905 14.4831 38.1406 14.0174 38.1406 12.7134C38.1406 11.2976 36.9856 10.7947 35.3836 10.7947H32.7011Z" fill="white"/>
<path d="M44.9674 16.5881H42.5085V6.90135H44.7997V8.5779C45.4145 7.27392 46.1037 6.62193 47.4449 6.62193C48.1901 6.62193 48.7117 6.77096 49.1587 7.12489L48.7117 9.3044C48.3391 9.09949 47.9479 8.93184 47.3704 8.93184C45.7684 8.93184 44.9674 10.124 44.9674 12.0055V16.5881Z" fill="white"/>
<path d="M56.3092 6.90135H58.7682V16.5881H56.4769V15.1909C55.769 16.3459 54.8749 16.8675 53.664 16.8675C50.9816 16.8675 50.1992 15.1537 50.1992 12.8438V6.90135H52.6581V12.7693C52.6581 14.0546 53.1052 14.7997 54.2974 14.7997C55.4337 14.7997 56.3092 13.9056 56.3092 12.1732V6.90135Z" fill="white"/>
<path d="M65.5148 14.5203L65.6825 16.4949C65.3099 16.6812 64.4344 16.7743 64.0804 16.7743C62.05 16.7743 61.4166 15.6566 61.4166 13.7566V8.8387H60.0381V6.90135H61.4166V4.74047L63.8755 3.93946V6.90135H65.6638V8.8387H63.8755V13.1977C63.8755 14.036 63.8755 14.6321 64.7511 14.6321C64.9373 14.6321 65.2168 14.6135 65.5148 14.5203Z" fill="white"/>
<path d="M75.8809 12.434H69.0816C69.1747 14.0732 70.1806 14.8184 71.466 14.8184C72.4346 14.8184 73.1798 14.2595 73.4406 13.384L75.7318 13.8683C75.0612 15.8616 73.571 16.8675 71.3169 16.8675C68.7649 16.8675 66.6226 15.2096 66.6226 11.7447C66.6226 8.27985 68.7835 6.62193 71.3169 6.62193C73.9063 6.62193 75.8995 8.29848 75.8995 11.4094C75.8995 11.8378 75.8809 12.3781 75.8809 12.434ZM71.2611 8.67104C70.2738 8.67104 69.2865 9.36029 69.1188 10.7015H73.3847C73.3102 9.49068 72.4905 8.67104 71.2611 8.67104Z" fill="white"/>
<path d="M79.7315 9.88188C79.7315 12.732 81.0914 14.5948 83.4199 14.5948C85.0406 14.5948 86.121 13.7007 86.6054 12.0241L89.1947 12.7134C88.431 15.2655 86.6054 16.8675 83.4199 16.8675C79.3217 16.8675 77.0304 13.8683 77.0304 9.88188C77.0304 5.89543 79.2658 2.89627 83.3641 2.89627C86.4005 2.89627 88.5427 4.42379 89.1947 7.06901L86.6054 7.75826C86.2142 6.02583 85.0406 5.16892 83.3641 5.16892C81.0914 5.16892 79.7315 7.03175 79.7315 9.88188Z" fill="white"/>
<path d="M93.2263 16.5881H90.7673V6.90135H93.0586V8.5779C93.6734 7.27392 94.3626 6.62193 95.7038 6.62193C96.449 6.62193 96.9706 6.77096 97.4176 7.12489L96.9706 9.3044C96.598 9.09949 96.2068 8.93184 95.6293 8.93184C94.0273 8.93184 93.2263 10.124 93.2263 12.0055V16.5881Z" fill="white"/>
<path d="M98.6443 20.2578L98.4581 18.0783C98.7747 18.2087 98.9983 18.3205 99.5385 18.3205C100.265 18.3205 100.749 18.0038 101.141 17.0351L101.327 16.4949L97.5639 6.90135H100.079L102.482 13.6448L104.866 6.90135H107.288L103.45 17.2773C102.687 19.345 101.681 20.5 99.9669 20.5C99.3895 20.5 98.9983 20.3696 98.6443 20.2578Z" fill="white"/>
<path d="M110.827 20.3137H108.368V6.90135H110.641V8.09356C111.2 7.16215 112.075 6.62193 113.23 6.62193C115.652 6.62193 117.403 8.46613 117.403 11.7447C117.403 15.0233 115.596 16.8675 113.174 16.8675C112.28 16.8675 111.386 16.5508 110.827 15.6939V20.3137ZM110.622 11.7447C110.622 13.8124 111.516 14.8184 112.783 14.8184C114.068 14.8184 114.944 13.8124 114.944 11.7447C114.944 9.67697 114.013 8.67104 112.802 8.67104C111.647 8.67104 110.622 9.67697 110.622 11.7447Z" fill="white"/>
<path d="M123.593 14.5203L123.76 16.4949C123.388 16.6812 122.512 16.7743 122.158 16.7743C120.128 16.7743 119.495 15.6566 119.495 13.7566V8.8387H118.116V6.90135H119.495V4.74047L121.954 3.93946V6.90135H123.742V8.8387H121.954V13.1977C121.954 14.036 121.954 14.6321 122.829 14.6321C123.015 14.6321 123.295 14.6135 123.593 14.5203Z" fill="white"/>
<path d="M124.701 11.7447C124.701 8.27985 126.806 6.62193 129.414 6.62193C132.04 6.62193 134.145 8.27985 134.145 11.7447C134.145 15.2096 132.04 16.8675 129.414 16.8675C126.806 16.8675 124.701 15.2096 124.701 11.7447ZM127.16 11.7447C127.16 13.8124 128.072 14.8184 129.414 14.8184C130.755 14.8184 131.686 13.8124 131.686 11.7447C131.686 9.6956 130.755 8.67104 129.414 8.67104C128.072 8.67104 127.16 9.6956 127.16 11.7447Z" fill="white"/>
</svg>
