<svg width="190" height="26" viewBox="0 0 190 26" fill="none" xmlns="http://www.w3.org/2000/svg">
<path fill-rule="evenodd" clip-rule="evenodd" d="M190 1C190 0.723858 189.776 0.5 189.5 0.5H0.5C0.223858 0.5 0 0.723858 0 1V1C0 1.27614 0.223857 1.5 0.5 1.5H15.75C22.5155 1.5 28 6.98451 28 13.75V13.75C28 20.5155 33.4845 26 40.25 26H150.75C157.515 26 163 20.5155 163 13.75V13.75C163 6.98451 168.485 1.5 175.25 1.5H189.5C189.776 1.5 190 1.27614 190 1V1Z" fill="#B37FFF"/>
<path d="M41.982 19H40.022V8.92H42.57L45.342 16.592L48.142 8.92H50.648V19H48.674V12.154L46.168 19H44.488L41.982 12.154V19ZM52.2758 13.96C52.2758 10.964 53.9978 8.71 57.0778 8.71C60.1438 8.71 61.8658 10.964 61.8658 13.96C61.8658 16.956 60.1438 19.21 57.0778 19.21C53.9978 19.21 52.2758 16.956 52.2758 13.96ZM54.3058 13.96C54.3058 16.102 55.3278 17.502 57.0778 17.502C58.7718 17.502 59.8218 16.102 59.8218 13.96C59.8218 11.818 58.7718 10.418 57.0778 10.418C55.3698 10.418 54.3058 11.818 54.3058 13.96ZM63.0206 15.78L64.9246 15.668C65.0366 16.984 65.8346 17.502 67.1226 17.502C68.1866 17.502 68.9706 17.068 68.9706 16.186C68.9706 15.598 68.6766 15.248 67.8786 14.968C67.3466 14.772 66.0306 14.45 65.4286 14.254C63.6506 13.708 63.3426 12.672 63.3426 11.72C63.3426 9.676 65.0646 8.71 66.8566 8.71C69.1946 8.71 70.5386 9.704 70.6786 11.804L68.7466 11.902C68.6206 11.006 68.1166 10.418 66.9126 10.418C65.9606 10.418 65.2326 10.824 65.2326 11.552C65.2326 11.972 65.4286 12.252 65.9326 12.448C66.3946 12.63 67.5426 12.952 68.5086 13.218C69.9786 13.638 71.0006 14.478 71.0006 16.116C71.0006 18.23 69.0546 19.21 67.1786 19.21C64.5466 19.21 63.1746 17.964 63.0206 15.78ZM76.7136 19H74.7536V10.698H71.5616V8.92H79.9056V10.698H76.7136V19ZM87.1675 19H85.2075V8.92H88.9455C90.9755 8.92 92.9215 9.76 92.9215 12.168C92.9215 14.198 91.5635 15.528 89.0575 15.528H87.1675V19ZM87.1675 10.656V13.806H88.9455C90.4295 13.806 90.9195 13.036 90.9195 12.21C90.9195 11.188 90.2475 10.656 88.9175 10.656H87.1675ZM94.1254 13.96C94.1254 10.964 95.8474 8.71 98.9274 8.71C101.993 8.71 103.715 10.964 103.715 13.96C103.715 16.956 101.993 19.21 98.9274 19.21C95.8474 19.21 94.1254 16.956 94.1254 13.96ZM96.1554 13.96C96.1554 16.102 97.1774 17.502 98.9274 17.502C100.621 17.502 101.671 16.102 101.671 13.96C101.671 11.818 100.621 10.418 98.9274 10.418C97.2194 10.418 96.1554 11.818 96.1554 13.96ZM107.306 19H105.346V8.92H109.084C111.114 8.92 113.06 9.76 113.06 12.168C113.06 14.198 111.702 15.528 109.196 15.528H107.306V19ZM107.306 10.656V13.806H109.084C110.568 13.806 111.058 13.036 111.058 12.21C111.058 11.188 110.386 10.656 109.056 10.656H107.306ZM121.082 14.646V8.92H123.056V14.772C123.056 17.46 121.628 19.21 118.87 19.21C116.14 19.21 114.684 17.46 114.684 14.772V8.92H116.644V14.646C116.644 16.578 117.414 17.432 118.884 17.432C120.354 17.432 121.082 16.578 121.082 14.646ZM132.466 19H125.102V8.92H127.062V17.222H132.466V19ZM137.001 8.92H138.821L142.727 19H140.683L139.941 16.998H135.769L135.027 19H133.025L137.001 8.92ZM137.869 11.328L136.385 15.346H139.339L137.869 11.328ZM143.887 19V8.92H147.667C149.809 8.92 151.517 9.718 151.517 11.93C151.517 13.47 150.551 14.422 149.011 14.646C150.033 14.842 150.803 15.766 151.237 16.662L152.385 19H150.047L149.249 17.306C148.577 15.878 147.919 15.332 146.659 15.332H145.847V19H143.887ZM145.847 10.698V13.652H147.191C148.675 13.652 149.501 13.204 149.501 12.168C149.501 10.922 148.493 10.698 147.163 10.698H145.847Z" fill="#020202"/>
</svg>
