<?xml version="1.0" encoding="utf-8"?><svg viewBox="0 0 54 54" xmlns="http://www.w3.org/2000/svg" xmlns:xlink="http://www.w3.org/1999/xlink"><style>:root>svg{display:none}:root>svg:target{display:block}</style><svg viewBox="0 0 34 34" id="all" xmlns="http://www.w3.org/2000/svg"><rect width="34" height="34" rx="17"/><path d="M24.012 18.602c2.151-3.935.793-8.861-3.109-11.194a.212.212 0 00-.29.071l-1.535 2.593a.28.28 0 01-.372.102C14.69 8.06 9.659 9.394 7.28 13.216c-.06.1-.03.227.072.284l2.64 1.502a.268.268 0 01.106.364c-2.151 3.936-.787 8.865 3.109 11.194.102.058.23.029.29-.071l1.535-2.592a.28.28 0 01.372-.103c4.018 2.108 9.05.773 11.426-3.042a.203.203 0 00-.072-.284l-2.641-1.502a.268.268 0 01-.105-.364zm-9.095 4.893c-2.166-1.398-2.913-4.2-1.696-6.456a.205.205 0 00-.08-.272l-2.634-1.498a.268.268 0 01-.095-.382c1.426-2.122 4.287-2.853 6.59-1.66.1.049.223.016.278-.077l1.532-2.587a.28.28 0 01.39-.092c2.166 1.397 2.913 4.2 1.696 6.456a.205.205 0 00.08.272l2.634 1.498c.138.078.18.25.095.382-1.461 2.18-4.43 2.89-6.762 1.57l-1.632 2.757a.29.29 0 01-.396.089z"/></svg><svg viewBox="0 0 34 34" id="bnb" xmlns="http://www.w3.org/2000/svg"><path d="M33.488 21.112c-2.27 9.108-11.495 14.65-20.603 12.379C3.78 31.221-1.762 21.996.509 12.889 2.78 3.781 12.003-1.76 21.11.51c9.107 2.27 14.649 11.496 12.378 20.604z"/><path fill-rule="evenodd" clip-rule="evenodd" d="M17 10.789l-4.402 4.402-2.56-2.562L17 5.666l6.966 6.965-2.562 2.562L17 10.789zm-8.772 3.649l-2.561 2.561 2.561 2.561L10.79 17l-2.562-2.561zm4.37 4.37L17 23.21l4.404-4.404 2.563 2.56-.001.002L17 28.332l-6.963-6.963-.004-.004 2.565-2.558zm13.174-4.369L23.211 17l2.561 2.562L28.334 17l-2.562-2.56z"/><path d="M19.598 16.998L17 14.4l-1.921 1.92-.22.222-.456.455-.004.003.004.004L17 19.6l2.599-2.599L19.6 17l-.002-.002"/></svg><svg viewBox="0 0 34 34" id="btc" xmlns="http://www.w3.org/2000/svg"><path d="M33.492 21.112c-2.271 9.108-11.495 14.65-20.603 12.379C3.784 31.221-1.758 21.996.513 12.889 2.783 3.781 12.007-1.76 21.113.51c9.107 2.27 14.649 11.496 12.378 20.604z"/><path fill-rule="evenodd" clip-rule="evenodd" d="M24.498 14.578c.339-2.262-1.384-3.478-3.739-4.29l.764-3.064-1.865-.465-.744 2.984c-.49-.122-.994-.238-1.495-.352l.75-3.003-1.865-.465-.764 3.063a61.614 61.614 0 01-1.191-.28l.002-.01-2.573-.642-.496 1.993s1.384.317 1.355.337c.755.188.892.688.87 1.085l-.871 3.49c.052.014.12.033.194.063l-.054-.014-.143-.035-1.22 4.89c-.093.23-.327.575-.855.444.019.027-1.356-.338-1.356-.338l-.926 2.135 2.428.605c.265.067.528.135.788.203.182.048.362.095.541.14l-.771 3.1 1.863.465.764-3.067c.51.138 1.003.266 1.487.386l-.762 3.052 1.866.465.771-3.094c3.181.602 5.573.36 6.58-2.518.811-2.316-.04-3.652-1.714-4.524 1.22-.28 2.137-1.082 2.382-2.739zm-4.262 5.977c-.529 2.125-3.855 1.246-5.378.844l-.363-.094 1.024-4.107c.127.032.283.067.459.107 1.574.353 4.8 1.077 4.258 3.25zm-3.942-5.156c1.269.338 4.037 1.077 4.52-.854.491-1.976-2.199-2.572-3.513-2.863a16.246 16.246 0 01-.384-.088l-.93 3.725c.089.021.191.049.307.08z"/></svg><svg viewBox="0 0 14 11" id="check" xmlns="http://www.w3.org/2000/svg"><path d="M4.958 11L.208 6.25l1.188-1.188 3.563 3.562L12.604.98l1.188 1.187-8.834 8.833z"/></svg><svg viewBox="0 0 34 34" id="eth" xmlns="http://www.w3.org/2000/svg"><circle cx="17" cy="17" r="17"/><path d="M16.954 6.8l-.136.46v13.328l.136.135 6.186-3.657L16.954 6.8z"/><path d="M16.954 6.8l-6.187 10.265 6.187 3.658V6.8zM16.954 21.894l-.077.093v4.748l.077.223 6.19-8.719-6.19 3.655z"/><path d="M16.954 26.958v-5.064l-6.187-3.655 6.187 8.719zM16.954 20.723l6.186-3.657-6.186-2.812v6.47zM10.767 17.066l6.187 3.657v-6.47l-6.187 2.813z"/></svg><svg viewBox="0 0 54 54" id="key" xmlns="http://www.w3.org/2000/svg"><path d="M24.865 41.89c1.802-1.835 2.703-4.037 2.703-6.606 0-2.568-.901-4.77-2.703-6.605-1.802-1.835-3.964-2.752-6.487-2.752-2.522 0-4.684.917-6.486 2.752-1.802 1.835-2.703 4.037-2.703 6.605 0 2.57.901 4.771 2.703 6.606 1.802 1.835 3.964 2.752 6.486 2.752 2.523 0 4.685-.917 6.487-2.752zm6.486 6.605C27.748 52.165 23.423 54 18.378 54c-5.045 0-9.369-1.835-12.973-5.505C1.802 44.825 0 40.422 0 35.285c0-5.138 1.802-9.542 5.405-13.212 2.92-2.972 6.298-4.725 10.137-5.258 3.838-.532 7.414.01 10.728 1.625L44.378 0h8.54L54 16.514l-9.676 1.156v8.807h-8.648l-.757.77c1.694 3.56 2.216 7.285 1.568 11.175-.65 3.89-2.36 7.248-5.136 10.073z"/></svg></svg>