<svg width="34" height="34" viewBox="0 0 34 34" fill="none" xmlns="http://www.w3.org/2000/svg">
<rect width="34" height="34" rx="17" fill="white"/>
<path d="M24.012 18.6018C26.1631 14.6666 24.8048 9.74069 20.903 7.40833C20.8011 7.35067 20.6721 7.37953 20.6133 7.47936L19.0778 10.0715C19.0016 10.2007 18.8409 10.2429 18.7055 10.1742C14.6911 8.05999 9.65939 9.39492 7.27951 13.2164C7.22068 13.3162 7.25018 13.4425 7.35211 13.5002L9.99279 15.0017C10.1247 15.0763 10.1678 15.2338 10.0977 15.3664C7.94656 19.3016 9.31077 24.2309 13.2066 26.5599C13.3086 26.6175 13.4375 26.5887 13.4963 26.4888L15.0319 23.8967C15.108 23.7675 15.2687 23.7253 15.4041 23.794C19.422 25.9023 24.4537 24.5674 26.8301 20.7518C26.8889 20.652 26.8594 20.5257 26.7575 20.468L24.1168 18.9665C23.9849 18.8919 23.9418 18.7344 24.012 18.6018ZM14.9168 23.4949C12.7506 22.0973 12.0038 19.2947 13.221 17.0392C13.2704 16.9418 13.2374 16.8214 13.1415 16.7671L10.5068 15.269C10.3689 15.191 10.3267 15.0184 10.4123 14.8867C11.8385 12.765 14.6993 12.0344 17.0022 13.2274C17.1016 13.2758 17.2245 13.2435 17.2799 13.1496L18.812 10.5632C18.8916 10.4282 19.0678 10.3869 19.2022 10.4708C21.3685 11.8684 22.1153 14.6711 20.8981 16.9265C20.8487 17.0239 20.8816 17.1443 20.9776 17.1986L23.6123 18.6967C23.7502 18.7747 23.7923 18.9474 23.7067 19.079C22.246 21.2594 19.2779 21.9686 16.9455 20.6493L15.3131 23.4059C15.2275 23.5375 15.0513 23.5788 14.9168 23.4949Z" fill="black"/>
</svg>
