<svg width="34" height="34" viewBox="0 0 34 34" fill="none" xmlns="http://www.w3.org/2000/svg">
<path d="M33.4876 21.1124C31.2171 30.2196 21.9929 35.7621 12.8846 33.491C3.78014 31.2206 -1.76234 21.9958 0.509125 12.8894C2.7786 3.78112 12.0028 -1.76177 21.1082 0.508698C30.2159 2.77917 35.758 12.0049 33.4873 21.1125L33.4875 21.1124H33.4876Z" fill="white"/>
<path fill-rule="evenodd" clip-rule="evenodd" d="M17.0003 10.7887L12.5982 15.1907L12.5983 15.1905L10.0371 12.6292L17.0003 5.66602L23.9657 12.6313L21.4044 15.1926L17.0003 10.7887ZM8.22842 14.4375L5.66699 16.9992L8.22823 19.5601L10.7897 16.9987L8.22842 14.4375ZM12.5983 18.8082L17.0003 23.21L21.4043 18.8062L23.967 21.3661L23.9658 21.3675L17.0003 28.3327L10.0371 21.3695L10.0335 21.3659L12.5983 18.8082ZM25.7724 14.4391L23.211 17.0005L25.7723 19.5618L28.3336 17.0004L25.7724 14.4391Z" fill="#020202"/>
<path d="M19.5976 16.9985H19.5987L16.9998 14.3994L15.0789 16.3198V16.3198L14.8582 16.5406L14.403 16.9958L14.3994 16.9994L14.403 17.0031L16.9998 19.6002L19.5989 17.0012L19.6001 16.9997L19.5978 16.9985" fill="#020202"/>
</svg>
