<svg width="34" height="34" viewBox="0 0 34 34" fill="none" xmlns="http://www.w3.org/2000/svg">
<path d="M33.4915 21.1124C31.221 30.2196 21.9969 35.7621 12.8885 33.491C3.78404 31.2206 -1.75844 21.9958 0.513031 12.8894C2.78251 3.78112 12.0067 -1.76177 21.1121 0.508698C30.2198 2.77917 35.7619 12.0049 33.4912 21.1126L33.4914 21.1124H33.4915Z" fill="white"/>
<path fill-rule="evenodd" clip-rule="evenodd" d="M24.4984 14.5782C24.8368 12.3159 23.1144 11.0998 20.7592 10.2886L21.5232 7.22403L19.6577 6.7592L18.914 9.74304C18.4235 9.62072 17.9199 9.50547 17.4193 9.39121L18.1685 6.38768L16.3042 5.92285L15.5397 8.98638C15.1339 8.89398 14.7353 8.80266 14.3486 8.70643L14.3507 8.69679L11.7782 8.05439L11.282 10.0468C11.282 10.0468 12.666 10.3641 12.6368 10.3836C13.3923 10.5722 13.5289 11.0722 13.5062 11.4686L12.6358 14.9598C12.6879 14.973 12.7553 14.9921 12.8298 15.022L12.7756 15.0085C12.7296 14.997 12.6817 14.985 12.6326 14.9733L11.4127 19.8639C11.3204 20.0934 11.0861 20.4379 10.5579 20.3071C10.5766 20.3342 9.20205 19.9687 9.20205 19.9687L8.27588 22.1041L10.7035 22.7093C10.9693 22.7759 11.2321 22.8444 11.4921 22.9122C11.6738 22.9596 11.8542 23.0066 12.0335 23.0524L11.2615 26.1521L13.1249 26.6169L13.8893 23.5502C14.3984 23.6884 14.8924 23.8158 15.376 23.936L14.6141 26.9883L16.4796 27.4531L17.2515 24.3593C20.4325 24.9613 22.8244 24.7186 23.8312 21.8413C24.6424 19.5248 23.7908 18.1887 22.1173 17.3173C23.3362 17.0362 24.2543 16.2345 24.4991 14.5785L24.4985 14.5781L24.4984 14.5782ZM20.2362 20.5547C19.7072 22.68 16.3805 21.8013 14.8584 21.3993L14.8583 21.3993C14.7214 21.3631 14.5992 21.3308 14.4948 21.3049L15.5192 17.1984C15.6464 17.2301 15.8018 17.265 15.9779 17.3045L15.9779 17.3045C17.5523 17.6579 20.7781 18.3818 20.2362 20.5547H20.2362ZM16.2937 15.3987C17.5627 15.7374 20.331 16.4762 20.8131 14.5445H20.8132C21.3055 12.5689 18.6152 11.9733 17.3013 11.6824C17.1535 11.6497 17.0231 11.6208 16.9166 11.5943L15.9879 15.3186C16.0755 15.3405 16.1784 15.368 16.2937 15.3987Z" fill="#020202"/>
</svg>
