<svg width="54" height="54" viewBox="0 0 54 54" fill="none" xmlns="http://www.w3.org/2000/svg">
<path d="M24.8649 41.8899C26.6667 40.055 27.5676 37.8532 27.5676 35.2844C27.5676 32.7156 26.6667 30.5138 24.8649 28.6789C23.0631 26.844 20.9009 25.9266 18.3784 25.9266C15.8559 25.9266 13.6937 26.844 11.8919 28.6789C10.0901 30.5138 9.18919 32.7156 9.18919 35.2844C9.18919 37.8532 10.0901 40.055 11.8919 41.8899C13.6937 43.7248 15.8559 44.6422 18.3784 44.6422C20.9009 44.6422 23.0631 43.7248 24.8649 41.8899ZM31.3513 48.4954C27.7477 52.1651 23.4234 54 18.3784 54C13.3333 54 9.00901 52.1651 5.4054 48.4954C1.8018 44.8257 -4.83281e-07 40.422 0 35.2844C-4.83281e-07 30.1468 1.8018 25.7431 5.4054 22.0734C8.32432 19.1009 11.7031 17.3483 15.5416 16.8154C19.3802 16.2826 22.9564 16.8242 26.2703 18.4404L44.3784 0L52.9189 7.87437e-07L54 16.5138L44.3243 17.6697V26.4771L35.6757 26.4771L34.9189 27.2477C36.6126 30.8073 37.1351 34.5321 36.4865 38.422C35.8378 42.3119 34.1261 45.6697 31.3513 48.4954Z" fill="white"/>
</svg>
